<?xml version="1.0" encoding="UTF-8"?>
<svg width="215px" height="183px" viewBox="0 0 215 183" version="1.1" xmlns="http://www.w3.org/2000/svg" xmlns:xlink="http://www.w3.org/1999/xlink">
    <!-- Generator: Sketch 43.2 (39069) - http://www.bohemiancoding.com/sketch -->
    <title>background</title>
    <desc>Created with Sketch.</desc>
    <defs></defs>
    <g id="Page-1" stroke="none" stroke-width="1" fill="none" fill-rule="evenodd" stroke-linecap="round">
        <g id="Artboard" transform="translate(-346.000000, -22.000000)" stroke="#C9C9C9" stroke-width="2.5">
            <g id="background" transform="translate(348.000000, 23.000000)">
                <rect id="Rectangle-path" x="75.7249239" y="63.6878667" width="59.0230231" height="57.9441333"></rect>
                <rect id="Rectangle-path" x="87.9922651" y="75.7304" width="34.2473319" height="33.5936"></rect>
                <path d="M58.8302161,19.1136 L58.8302161,71.0002667 C58.8302161,71.9465882 59.5963293,72.7137333 60.5413777,72.7137333 L75.7249239,72.7137333 L75.7249239,63.6878667 L134.747947,63.6878667 L134.747947,72.7378667 L178.346415,72.7378667 C179.291464,72.7378667 180.057577,71.9707215 180.057577,71.0244 L180.057577,24.616" id="Shape"></path>
                <ellipse id="Oval" cx="180.105778" cy="14.7454667" rx="8.53170689" ry="8.5432"></ellipse>
                <ellipse id="Oval" cx="58.854317" cy="9.02586667" rx="8.53170689" ry="8.5432"></ellipse>
                <ellipse id="Oval" cx="202.350879" cy="66.1977333" rx="8.53170689" ry="8.5432"></ellipse>
                <ellipse id="Oval" cx="202.326778" cy="144.5828" rx="8.53170689" ry="8.5432"></ellipse>
                <ellipse id="Oval" cx="155.788004" cy="172.191333" rx="8.53170689" ry="8.5432"></ellipse>
                <ellipse id="Oval" cx="24.992599" cy="147.816667" rx="8.53170689" ry="8.5432"></ellipse>
                <ellipse id="Oval" cx="8.55580776" cy="100.298133" rx="8.53170689" ry="8.5432"></ellipse>
                <ellipse id="Oval" cx="8.62811036" cy="64.798" rx="8.53170689" ry="8.5432"></ellipse>
                <path d="M134.747947,86.6386667 L200.615616,86.6386667 C201.560665,86.6386667 202.326778,85.8715215 202.326778,84.9252 L202.326778,76.5026667" id="Shape"></path>
                <path d="M74.5680822,86.6386667 L30.4393949,86.6386667 C29.4943465,86.6386667 28.7282334,85.8715215 28.7282334,84.9252 L28.7282334,66.5597333 C28.7282334,65.6134118 27.9621202,64.8462667 27.0170718,64.8462667 L19.2806935,64.8462667" id="Shape"></path>
                <path d="M74.5680822,100.298133 L18.6781719,100.298133" id="Shape"></path>
                <path d="M134.747947,100.298133 L200.615616,100.298133 C201.560665,100.298133 202.326778,101.065278 202.326778,102.0116 L202.326778,134.302" id="Shape"></path>
                <path d="M74.5680822,113.426667 L26.7519623,113.426667 C25.8069138,113.426667 25.0408007,114.193812 25.0408007,115.140133 L25.0408007,137.801333" id="Shape"></path>
                <path d="M84.5217403,53.2622667 L84.5217403,63.6878667" id="Shape"></path>
                <path d="M97.9459231,53.2622667 L97.9459231,63.6878667" id="Shape"></path>
                <path d="M111.587014,53.2622667 L111.587014,63.6878667" id="Shape"></path>
                <path d="M125.011197,53.2622667 L125.011197,63.6878667" id="Shape"></path>
                <path d="M84.5217403,122.7904 L84.5217403,133.216" id="Shape"></path>
                <path d="M97.9459231,122.7904 L97.9459231,133.216" id="Shape"></path>
                <path d="M111.587014,122.7904 L111.587014,133.216" id="Shape"></path>
                <path d="M125.011197,122.7904 L125.011197,133.216" id="Shape"></path>
                <path d="M134.747947,113.426667 L178.346415,113.426667 C179.291464,113.426667 180.057577,114.193812 180.057577,115.140133 L180.057577,145.548133 C180.057577,146.494455 179.291464,147.2616 178.346415,147.2616 L157.523266,147.2616 C156.578218,147.2616 155.812105,148.028745 155.812105,148.975067 L155.812105,161.693333" id="Shape"></path>
                <path d="M45.7916471,77.5886667 L45.7916471,57.6545333 C45.828539,56.6195873 46.2396513,55.633304 46.9484888,54.8792 L57.6010719,44.2122667" id="Shape"></path>
                <path d="M73.6522493,30.0942667 L85.2206654,18.5102667 C85.9486412,17.7625913 86.949477,17.3442884 87.9922651,17.3518667 L99.3437734,17.3518667 C100.377327,17.3888082 101.362284,17.8004743 102.115373,18.5102667 L104.886973,21.2856 C105.652081,22.0319173 106.0714,23.06413 106.043814,24.1333333 L106.043814,39.1925333" id="Shape"></path>
                <path d="M164.126904,63.4465333 L164.126904,56.7374667 C164.090012,55.7025206 163.6789,54.7162373 162.970062,53.9621333 L149.087963,40.0613333 C148.359987,39.3136579 147.359151,38.895355 146.316363,38.9029333 L146.316363,38.9029333 C145.328048,38.916043 144.376379,38.5286919 143.677473,37.8288447 C142.978567,37.1289975 142.591738,36.1760466 142.60483,35.1864 L142.60483,34.9450667 C142.567938,33.9101206 142.156825,32.9238373 141.447988,32.1697333 L126.987468,17.6897333 C126.259492,16.9420579 125.258656,16.523755 124.215868,16.5313333 L113.274075,16.5313333 C112.240521,16.5682749 111.255564,16.979941 110.502475,17.6897333 L105.802806,22.444" id="Shape"></path>
                <path d="M164.126904,122.7904 L164.126904,128.341067 C164.090012,129.376013 163.6789,130.362296 162.970062,131.1164 L157.643771,136.667067" id="Shape"></path>
                <path d="M145.159521,147.575333 L125.035298,167.726667 C124.307322,168.474342 123.306486,168.892645 122.263698,168.885067 L110.863988,168.885067 C109.830434,168.848125 108.845478,168.436459 108.092388,167.726667 L105.320788,164.951333 C104.574119,164.222377 104.156379,163.220193 104.163947,162.176 L104.163947,147.213333" id="Shape"></path>
                <path d="M45.7916471,122.7904 L45.7916471,129.499467 C45.828539,130.534413 46.2396513,131.520696 46.9484888,132.2748 L60.8305881,146.1756 C61.5585639,146.923275 62.5593997,147.341578 63.6021878,147.334 L63.6021878,147.334 C64.6192022,147.273481 65.6154474,147.639791 66.3516812,148.344963 C67.0879149,149.050136 67.497627,150.030466 67.4824274,151.050533 L67.4824274,151.291867 C67.5193192,152.326813 67.9304315,153.313096 68.639269,154.0672 L83.0997891,168.5472 C83.827765,169.294875 84.8286008,169.713178 85.8713888,169.7056 L96.9818885,169.7056 C98.0154422,169.668658 99.0003987,169.256992 99.7534882,168.5472 L104.429056,164.106667" id="Shape"></path>
            </g>
        </g>
    </g>
</svg>