<?xml version="1.0" encoding="UTF-8"?>
<svg width="450px" height="62px" viewBox="0 0 450 62" version="1.1" xmlns="http://www.w3.org/2000/svg" xmlns:xlink="http://www.w3.org/1999/xlink">
    <!-- Generator: Sketch 43.2 (39069) - http://www.bohemiancoding.com/sketch -->
    <title>header small</title>
    <desc>Created with Sketch.</desc>
    <defs></defs>
    <g id="Page-1" stroke="none" stroke-width="1" fill="none" fill-rule="evenodd">
        <g id="Artboard" transform="translate(-123.000000, -373.000000)">
            <g id="header-small" transform="translate(123.000000, 373.000000)">
                <rect id="Rectangle-3" fill="#009688" x="0" y="0" width="450" height="62"></rect>
                <g id="machinelearning" transform="translate(387.000000, 7.000000)" stroke="#F5A623" stroke-width="2.5" stroke-linecap="round">
                    <rect id="Rectangle-path" x="20.0976101" y="16.8896" width="15.6648782" height="15.3664"></rect>
                    <rect id="Rectangle-path" x="23.3533974" y="20.0832" width="9.08933927" height="8.9088"></rect>
                    <path d="M15.6137067,5.0688 L15.6137067,18.8288 C15.6137067,19.0797582 15.8170353,19.2832 16.0678538,19.2832 L20.0976101,19.2832 L20.0976101,16.8896 L35.7624883,16.8896 L35.7624883,19.2896 L47.3336457,19.2896 C47.5844643,19.2896 47.7877929,19.0861582 47.7877929,18.8352 L47.7877929,6.528" id="Shape"></path>
                    <ellipse id="Oval" cx="47.8005858" cy="3.9104" rx="2.26433927" ry="2.2656"></ellipse>
                    <ellipse id="Oval" cx="15.6201031" cy="2.3936" rx="2.26433927" ry="2.2656"></ellipse>
                    <ellipse id="Oval" cx="53.7044986" cy="17.5552" rx="2.26433927" ry="2.2656"></ellipse>
                    <ellipse id="Oval" cx="53.6981022" cy="38.3424" rx="2.26433927" ry="2.2656"></ellipse>
                    <ellipse id="Oval" cx="41.3465792" cy="45.664" rx="2.26433927" ry="2.2656"></ellipse>
                    <ellipse id="Oval" cx="6.63310684" cy="39.2" rx="2.26433927" ry="2.2656"></ellipse>
                    <ellipse id="Oval" cx="2.27073571" cy="26.5984" rx="2.26433927" ry="2.2656"></ellipse>
                    <ellipse id="Oval" cx="2.28992502" cy="17.184" rx="2.26433927" ry="2.2656"></ellipse>
                    <path d="M35.7624883,22.976 L53.243955,22.976 C53.4947736,22.976 53.6981022,22.7725582 53.6981022,22.5216 L53.6981022,20.288" id="Shape"></path>
                    <path d="M19.7905811,22.976 L8.07870197,22.976 C7.82788343,22.976 7.62455483,22.7725582 7.62455483,22.5216 L7.62455483,17.6512 C7.62455483,17.4002418 7.42122623,17.1968 7.17040769,17.1968 L5.11715089,17.1968" id="Shape"></path>
                    <path d="M19.7905811,26.5984 L4.95723993,26.5984" id="Shape"></path>
                    <path d="M35.7624883,26.5984 L53.243955,26.5984 C53.4947736,26.5984 53.6981022,26.8018418 53.6981022,27.0528 L53.6981022,35.616" id="Shape"></path>
                    <path d="M19.7905811,30.08 L7.10004686,30.08 C6.84922832,30.08 6.64589972,30.2834418 6.64589972,30.5344 L6.64589972,36.544" id="Shape"></path>
                    <path d="M22.4323102,14.1248 L22.4323102,16.8896" id="Shape"></path>
                    <path d="M25.9951265,14.1248 L25.9951265,16.8896" id="Shape"></path>
                    <path d="M29.6155108,14.1248 L29.6155108,16.8896" id="Shape"></path>
                    <path d="M33.1783271,14.1248 L33.1783271,16.8896" id="Shape"></path>
                    <path d="M22.4323102,32.5632 L22.4323102,35.328" id="Shape"></path>
                    <path d="M25.9951265,32.5632 L25.9951265,35.328" id="Shape"></path>
                    <path d="M29.6155108,32.5632 L29.6155108,35.328" id="Shape"></path>
                    <path d="M33.1783271,32.5632 L33.1783271,35.328" id="Shape"></path>
                    <path d="M35.7624883,30.08 L47.3336457,30.08 C47.5844643,30.08 47.7877929,30.2834418 47.7877929,30.5344 L47.7877929,38.5984 C47.7877929,38.8493582 47.5844643,39.0528 47.3336457,39.0528 L41.8071228,39.0528 C41.5563042,39.0528 41.3529756,39.2562418 41.3529756,39.5072 L41.3529756,42.88" id="Shape"></path>
                    <path d="M12.1532334,20.576 L12.1532334,15.2896 C12.1630246,15.0151392 12.2721349,14.7535834 12.4602624,14.5536 L15.2874883,11.7248" id="Shape"></path>
                    <path d="M19.5475164,7.9808 L22.6178069,4.9088 C22.8110138,4.71052144 23.0766385,4.59959029 23.3533974,4.6016 L26.36612,4.6016 C26.6404281,4.61139666 26.9018383,4.72056777 27.1017104,4.9088 L27.8373008,5.6448 C28.0403628,5.84271839 28.1516511,6.11645436 28.1443299,6.4 L28.1443299,10.3936" id="Shape"></path>
                    <path d="M43.559747,16.8256 L43.559747,15.0464 C43.5499557,14.7719392 43.4408454,14.5103834 43.2527179,14.3104 L39.5683693,10.624 C39.3751624,10.4257214 39.1095377,10.3147903 38.8327788,10.3168 L38.8327788,10.3168 C38.5704771,10.3202766 38.3179015,10.2175537 38.13241,10.0319588 C37.9469184,9.84636397 37.8442526,9.59364772 37.8477273,9.3312 L37.8477273,9.2672 C37.8379361,8.99273916 37.7288257,8.73118338 37.5406982,8.5312 L33.7028351,4.6912 C33.5096282,4.49292144 33.2440035,4.38199029 32.9672446,4.384 L30.0632615,4.384 C29.7889534,4.39379666 29.5275431,4.50296777 29.327671,4.6912 L28.0803655,5.952" id="Shape"></path>
                    <path d="M43.559747,32.5632 L43.559747,34.0352 C43.5499557,34.3096608 43.4408454,34.5712166 43.2527179,34.7712 L41.839105,36.2432" id="Shape"></path>
                    <path d="M38.5257498,39.136 L33.1847235,44.48 C32.9915167,44.6782786 32.725892,44.7892097 32.4491331,44.7872 L29.4236176,44.7872 C29.1493095,44.7774033 28.8878993,44.6682322 28.6880272,44.48 L27.9524367,43.744 C27.7542685,43.5506856 27.6433991,43.284913 27.6454077,43.008 L27.6454077,39.04" id="Shape"></path>
                    <path d="M12.1532334,32.5632 L12.1532334,34.3424 C12.1630246,34.6168608 12.2721349,34.8784166 12.4602624,35.0784 L16.1446111,38.7648 C16.3378179,38.9630786 16.6034426,39.0740097 16.8802015,39.072 L16.8802015,39.072 C17.15012,39.0559508 17.4145263,39.1530938 17.6099249,39.3401008 C17.8053234,39.5271078 17.9140621,39.7870849 17.9100281,40.0576 L17.9100281,40.1216 C17.9198193,40.3960608 18.0289297,40.6576166 18.2170572,40.8576 L22.0549203,44.6976 C22.2481272,44.8958786 22.5137519,45.0068097 22.7905108,45.0048 L25.739269,45.0048 C26.0135771,44.9950033 26.2749873,44.8858322 26.4748594,44.6976 L27.7157685,43.52" id="Shape"></path>
                </g>
            </g>
        </g>
    </g>
</svg>