<?xml version="1.0" encoding="UTF-8"?>
<svg width="450px" height="100px" viewBox="0 0 450 100" version="1.1" xmlns="http://www.w3.org/2000/svg" xmlns:xlink="http://www.w3.org/1999/xlink">
    <!-- Generator: Sketch 43.2 (39069) - http://www.bohemiancoding.com/sketch -->
    <title>header</title>
    <desc>Created with Sketch.</desc>
    <defs></defs>
    <g id="Page-1" stroke="none" stroke-width="1" fill="none" fill-rule="evenodd">
        <g id="Artboard" transform="translate(-123.000000, -220.000000)">
            <g id="header" transform="translate(123.000000, 220.000000)">
                <rect id="Rectangle-3" fill="#009688" x="0" y="0" width="450" height="100"></rect>
                <g id="machinelearning" transform="translate(344.000000, 8.000000)" stroke="#F5A623" stroke-width="2.5" stroke-linecap="round">
                    <rect id="Rectangle-path" x="35.1708177" y="29.5568" width="27.4135368" height="26.8912"></rect>
                    <rect id="Rectangle-path" x="40.8684454" y="35.1456" width="15.9063437" height="15.5904"></rect>
                    <path d="M27.3239866,8.8704 L27.3239866,32.9504 C27.3239866,33.3895768 27.6798117,33.7456 28.1187441,33.7456 L35.1708177,33.7456 L35.1708177,29.5568 L62.5843545,29.5568 L62.5843545,33.7568 L82.83388,33.7568 C83.2728125,33.7568 83.6286375,33.4007768 83.6286375,32.9616 L83.6286375,11.424" id="Shape"></path>
                    <ellipse id="Oval" cx="83.6510251" cy="6.8432" rx="3.96259372" ry="3.9648"></ellipse>
                    <ellipse id="Oval" cx="27.3351804" cy="4.1888" rx="3.96259372" ry="3.9648"></ellipse>
                    <ellipse id="Oval" cx="93.9828725" cy="30.7216" rx="3.96259372" ry="3.9648"></ellipse>
                    <ellipse id="Oval" cx="93.9716788" cy="67.0992" rx="3.96259372" ry="3.9648"></ellipse>
                    <ellipse id="Oval" cx="72.3565136" cy="79.912" rx="3.96259372" ry="3.9648"></ellipse>
                    <ellipse id="Oval" cx="11.607937" cy="68.6" rx="3.96259372" ry="3.9648"></ellipse>
                    <ellipse id="Oval" cx="3.97378749" cy="46.5472" rx="3.96259372" ry="3.9648"></ellipse>
                    <ellipse id="Oval" cx="4.00736879" cy="30.072" rx="3.96259372" ry="3.9648"></ellipse>
                    <path d="M62.5843545,40.208 L93.1769213,40.208 C93.6158537,40.208 93.9716788,39.8519768 93.9716788,39.4128 L93.9716788,35.504" id="Shape"></path>
                    <path d="M34.6335169,40.208 L14.1377284,40.208 C13.698796,40.208 13.3429709,39.8519768 13.3429709,39.4128 L13.3429709,30.8896 C13.3429709,30.4504232 12.9871459,30.0944 12.5482134,30.0944 L8.95501406,30.0944" id="Shape"></path>
                    <path d="M34.6335169,46.5472 L8.67516987,46.5472" id="Shape"></path>
                    <path d="M62.5843545,46.5472 L93.1769213,46.5472 C93.6158537,46.5472 93.9716788,46.9032232 93.9716788,47.3424 L93.9716788,62.328" id="Shape"></path>
                    <path d="M34.6335169,52.64 L12.425082,52.64 C11.9861496,52.64 11.6303245,52.9960232 11.6303245,53.4352 L11.6303245,63.952" id="Shape"></path>
                    <path d="M39.2565429,24.7184 L39.2565429,29.5568" id="Shape"></path>
                    <path d="M45.4914714,24.7184 L45.4914714,29.5568" id="Shape"></path>
                    <path d="M51.8271439,24.7184 L51.8271439,29.5568" id="Shape"></path>
                    <path d="M58.0620724,24.7184 L58.0620724,29.5568" id="Shape"></path>
                    <path d="M39.2565429,56.9856 L39.2565429,61.824" id="Shape"></path>
                    <path d="M45.4914714,56.9856 L45.4914714,61.824" id="Shape"></path>
                    <path d="M51.8271439,56.9856 L51.8271439,61.824" id="Shape"></path>
                    <path d="M58.0620724,56.9856 L58.0620724,61.824" id="Shape"></path>
                    <path d="M62.5843545,52.64 L82.83388,52.64 C83.2728125,52.64 83.6286375,52.9960232 83.6286375,53.4352 L83.6286375,67.5472 C83.6286375,67.9863768 83.2728125,68.3424 82.83388,68.3424 L73.1624649,68.3424 C72.7235324,68.3424 72.3677074,68.6984232 72.3677074,69.1376 L72.3677074,75.04" id="Shape"></path>
                    <path d="M21.2681584,36.008 L21.2681584,26.7568 C21.285293,26.2764935 21.4762361,25.8187709 21.8054592,25.4688 L26.7531045,20.5184" id="Shape"></path>
                    <path d="M34.2081537,13.9664 L39.5811621,8.5904 C39.9192741,8.24341253 40.3841173,8.049283 40.8684454,8.0528 L46.1407099,8.0528 C46.6207491,8.06994415 47.078217,8.26099359 47.4279932,8.5904 L48.7152765,9.8784 C49.0706349,10.2247572 49.2653894,10.7037951 49.2525773,11.2 L49.2525773,18.1888" id="Shape"></path>
                    <path d="M76.2295572,29.4448 L76.2295572,26.3312 C76.2124226,25.8508935 76.0214794,25.3931709 75.6922563,25.0432 L69.2446462,18.592 C68.9065342,18.2450125 68.441691,18.050883 67.9573629,18.0544 L67.9573629,18.0544 C67.498335,18.060484 67.0563277,17.8807189 66.7317174,17.5559279 C66.4071072,17.231137 66.2274421,16.7888835 66.2335227,16.3296 L66.2335227,16.2176 C66.2163881,15.7372935 66.025445,15.2795709 65.6962219,14.9296 L58.9799613,8.2096 C58.6418493,7.86261253 58.1770062,7.668483 57.6926781,7.672 L52.6107076,7.672 C52.1306684,7.68914415 51.6732005,7.88019359 51.3234243,8.2096 L49.1406396,10.416" id="Shape"></path>
                    <path d="M76.2295572,56.9856 L76.2295572,59.5616 C76.2124226,60.0419065 76.0214794,60.4996291 75.6922563,60.8496 L73.2184337,63.4256" id="Shape"></path>
                    <path d="M67.4200621,68.488 L58.0732662,77.84 C57.7351542,78.1869875 57.270311,78.381117 56.7859829,78.3776 L51.4913308,78.3776 C51.0112916,78.3604558 50.5538237,78.1694064 50.2040476,77.84 L48.9167643,76.552 C48.5699699,76.2136998 48.3759484,75.7485978 48.3794634,75.264 L48.3794634,68.32" id="Shape"></path>
                    <path d="M21.2681584,56.9856 L21.2681584,60.0992 C21.285293,60.5795065 21.4762361,61.0372291 21.8054592,61.3872 L28.2530694,67.8384 C28.5911814,68.1853875 29.0560245,68.379517 29.5403526,68.376 L29.5403526,68.376 C30.01271,68.3479138 30.4754211,68.5179142 30.8173685,68.8451764 C31.1593159,69.1724387 31.3496087,69.6273985 31.3425492,70.1008 L31.3425492,70.2128 C31.3596838,70.6931065 31.5506269,71.1508291 31.87985,71.5008 L38.5961106,78.2208 C38.9342226,78.5677875 39.3990658,78.761917 39.8833939,78.7584 L45.0437207,78.7584 C45.5237599,78.7412558 45.9812278,78.5502064 46.331004,78.2208 L48.5025949,76.16" id="Shape"></path>
                </g>
            </g>
        </g>
    </g>
</svg>